<svg width="32" height="32" viewBox="0 0 32 32" fill="none" xmlns="http://www.w3.org/2000/svg">
<path d="M6 0.5H26C29.0376 0.5 31.5 2.96243 31.5 6V26C31.5 29.0376 29.0376 31.5 26 31.5H6C2.96243 31.5 0.5 29.0376 0.5 26V6C0.5 2.96243 2.96243 0.5 6 0.5Z" fill="white"/>
<path d="M6 0.5H26C29.0376 0.5 31.5 2.96243 31.5 6V26C31.5 29.0376 29.0376 31.5 26 31.5H6C2.96243 31.5 0.5 29.0376 0.5 26V6C0.5 2.96243 2.96243 0.5 6 0.5Z" stroke="#E7E5E4"/>
<path d="M15.3332 11.3334H11.9998C11.6462 11.3334 11.3071 11.4738 11.057 11.7239C10.807 11.9739 10.6665 12.3131 10.6665 12.6667V20C10.6665 20.3536 10.807 20.6928 11.057 20.9428C11.3071 21.1929 11.6462 21.3334 11.9998 21.3334H19.3332C19.6868 21.3334 20.0259 21.1929 20.276 20.9428C20.526 20.6928 20.6665 20.3536 20.6665 20V16.6667M19.7238 10.3907C19.8468 10.2633 19.994 10.1618 20.1566 10.0919C20.3193 10.022 20.4943 9.98523 20.6713 9.98369C20.8483 9.98215 21.0239 10.0159 21.1878 10.0829C21.3516 10.15 21.5005 10.249 21.6257 10.3742C21.7509 10.4994 21.8499 10.6482 21.9169 10.8121C21.984 10.9759 22.0177 11.1515 22.0162 11.3286C22.0146 11.5056 21.9779 11.6806 21.908 11.8432C21.8381 12.0059 21.7365 12.153 21.6092 12.276L15.8852 18H13.9998V16.1147L19.7238 10.3907Z" stroke="#171717" stroke-linecap="round" stroke-linejoin="round"/>
</svg>
